<?xml version="1.0" encoding="utf-8"?>

<!DOCTYPE svg PUBLIC "-//W3C//DTD SVG 1.1//EN" "http://www.w3.org/Graphics/SVG/1.1/DTD/svg11.dtd">
<!-- Uploaded to: SVG Repo, www.svgrepo.com, Generator: SVG Repo Mixer Tools -->
<svg height="800px" width="800px" version="1.1" id="_x32_" xmlns="http://www.w3.org/2000/svg" xmlns:xlink="http://www.w3.org/1999/xlink" 
	 viewBox="0 0 512 512"  xml:space="preserve">
<style type="text/css">
	.st0{fill:#000000;}
</style>
<g>
	<path class="st0" d="M256.003,100.243c22.749,0,41.196-18.448,41.196-41.212c0-22.749-18.448-41.189-41.196-41.189
		c-22.765,0-41.196,18.44-41.196,41.189C214.807,81.795,233.238,100.243,256.003,100.243z"/>
	<path class="st0" d="M364.117,1.295c-8.668-3.537-18.415,0.399-21.952,9.042l-32.712,73.252
		c-7.77,17.36-25.007,28.536-44.019,28.536h-9.432h-9.448c-19.012,0-36.248-11.176-44.003-28.536l-32.728-73.252
		c-3.52-8.643-13.284-12.578-21.935-9.042c-8.634,3.504-12.769,13.466-9.248,22.109l72.745,165.152l-46.759,165.84h49.615v138.451
		c0,10.577,8.585,19.153,19.162,19.153c10.578,0,19.162-8.576,19.162-19.153V354.396h6.874v138.451
		c0,10.577,8.568,19.153,19.162,19.153c10.578,0,19.162-8.576,19.162-19.153V354.396h49.598l-46.742-165.84l72.745-165.152
		C376.87,14.761,372.752,4.799,364.117,1.295z"/>
</g>
</svg>